<?xml version="1.0" standalone="no"?>
<!DOCTYPE svg PUBLIC "-//W3C//DTD SVG 20010904//EN"
 "http://www.w3.org/TR/2001/REC-SVG-20010904/DTD/svg10.dtd">
<svg version="1.0" xmlns="http://www.w3.org/2000/svg"
 width="354.000000pt" height="354.000000pt" viewBox="0 0 354.000000 354.000000"
 preserveAspectRatio="xMidYMid meet">
<metadata>
Created by potrace 1.14, written by Peter Selinger 2001-2017
</metadata>
<g transform="translate(0.000000,354.000000) scale(0.100000,-0.100000)"
fill="#000000" stroke="none">
<path d="M2913 2768 c-21 -27 -34 -91 -34 -163 0 -60 9 -100 46 -212 41 -127
43 -139 28 -150 -25 -19 -39 -16 -75 16 -74 64 -242 157 -337 185 -87 26 -140
21 -252 -24 -78 -30 -119 -54 -181 -105 l-80 -65 -74 0 c-55 0 -85 -5 -117
-21 l-44 -22 -66 40 c-36 22 -98 50 -136 63 -62 20 -86 22 -188 18 -89 -4
-133 -10 -178 -27 -33 -13 -96 -29 -140 -38 -85 -15 -226 -70 -232 -90 -6 -17
42 -39 113 -54 83 -17 99 -32 106 -99 7 -68 45 -155 90 -206 50 -57 68 -89 97
-173 31 -89 51 -105 121 -95 60 8 76 17 135 76 l49 50 13 -56 c7 -30 27 -86
44 -123 73 -157 0 -252 -241 -313 -267 -67 -409 -139 -435 -220 -8 -26 21 -85
52 -106 31 -20 113 -16 158 8 17 8 68 36 115 61 60 32 119 54 195 73 312 75
350 90 462 181 l53 43 0 -35 c0 -23 -5 -35 -13 -35 -22 0 -47 -35 -53 -71 -6
-37 24 -89 52 -89 12 0 14 -11 12 -52 -3 -47 -5 -52 -32 -59 -62 -17 -85 -68
-46 -104 15 -14 39 -18 115 -19 l96 -1 40 43 40 43 -7 128 -7 129 74 37 c100
50 175 108 198 153 10 22 21 70 24 117 4 44 14 105 24 135 17 50 21 55 56 63
37 9 40 8 70 -29 47 -60 146 -154 215 -204 95 -69 94 -68 39 -228 -47 -136
-57 -152 -116 -184 -25 -14 -31 -23 -31 -51 0 -19 6 -39 13 -44 18 -14 112
-43 139 -43 33 1 99 33 124 61 12 13 48 101 79 194 46 138 58 186 62 258 l6
88 -58 114 c-67 133 -76 187 -55 347 12 88 12 105 -3 152 -9 29 -17 56 -17 59
0 3 31 24 70 47 77 45 90 62 90 115 0 32 -9 45 -69 103 -63 61 -71 74 -94 147
-14 45 -29 114 -33 155 -4 41 -11 85 -15 98 -9 24 -41 30 -56 10z m51 -114 c4
-42 18 -113 33 -158 23 -74 31 -87 94 -149 96 -93 95 -124 -5 -184 -33 -20
-74 -45 -89 -56 -27 -19 -28 -20 -9 -33 34 -24 46 -92 32 -187 -25 -168 -11
-244 77 -402 25 -45 28 -59 27 -140 -1 -82 -6 -106 -57 -260 -63 -186 -81
-213 -155 -236 -34 -10 -48 -9 -98 8 -53 18 -59 22 -59 47 0 22 8 33 39 50 22
12 43 28 47 36 21 36 99 264 99 286 0 35 -23 66 -78 104 -84 60 -151 121 -204
187 -48 58 -56 64 -83 60 -16 -3 -77 -13 -135 -21 -190 -29 -194 -32 -359
-230 -203 -244 -247 -271 -579 -350 -138 -33 -201 -59 -341 -136 -70 -40 -128
-41 -165 -4 -87 87 35 181 339 259 199 52 262 84 306 154 37 58 39 122 5 189
-39 77 -59 158 -51 208 4 28 2 44 -4 44 -6 0 -11 -6 -11 -12 0 -7 -32 -44 -71
-83 l-71 -70 -66 0 -67 0 -27 78 c-26 73 -44 104 -118 201 -51 66 -86 185 -60
201 5 3 30 -3 55 -14 25 -11 45 -16 45 -12 0 13 -21 26 -82 51 -32 12 -58 27
-58 32 0 19 76 40 145 40 48 0 86 -6 123 -21 62 -25 83 -27 62 -7 -15 14 -88
39 -146 51 -45 9 -154 -11 -185 -34 -25 -19 -27 -19 -93 -1 -37 10 -70 21 -74
24 -15 16 99 61 192 76 35 5 95 22 132 36 93 36 261 45 349 19 74 -21 138 -53
198 -99 52 -40 71 -45 63 -18 -9 28 35 45 135 52 l86 6 76 63 c87 72 240 140
315 141 85 0 292 -91 400 -178 74 -59 82 -62 114 -46 16 8 31 21 34 28 2 6
-15 68 -38 137 -39 113 -43 133 -43 224 0 113 17 173 39 142 7 -9 16 -51 20
-93z m-482 -1069 c3 -3 -3 -36 -13 -73 -11 -36 -19 -91 -19 -120 0 -72 -23
-116 -84 -162 -44 -33 -165 -100 -181 -100 -7 0 -6 81 1 119 4 17 12 31 20 31
28 0 54 51 54 109 0 31 3 80 6 108 7 51 8 53 45 63 21 6 65 14 96 19 32 5 61
9 64 10 3 0 8 -1 11 -4z m-236 -87 c-3 -13 -6 -53 -6 -89 0 -51 -5 -72 -19
-90 -11 -13 -22 -21 -26 -18 -14 15 29 219 47 219 6 0 8 -9 4 -22z m-59 -65
c-27 -166 -34 -353 -21 -504 l6 -77 -35 -38 -36 -39 -88 3 c-62 2 -92 7 -103
17 -21 22 -2 47 48 63 l42 14 1 156 c0 87 3 174 7 195 5 26 32 68 92 142 47
58 87 105 89 105 2 0 1 -17 -2 -37z m-207 -363 c0 -51 -12 -64 -38 -38 -23 23
-6 88 23 88 11 0 15 -13 15 -50z"/>
<path d="M545 1327 c-97 -32 -182 -123 -206 -220 -33 -137 38 -284 169 -349
37 -18 64 -23 127 -23 94 0 150 23 214 86 63 64 86 120 86 214 0 63 -5 90 -23
127 -31 62 -87 119 -146 148 -58 28 -163 36 -221 17z m211 -35 c62 -32 97 -65
129 -124 26 -46 30 -63 30 -133 0 -70 -4 -87 -30 -133 -32 -59 -66 -91 -129
-125 -58 -31 -184 -31 -242 0 -63 34 -97 66 -128 123 -85 155 -11 342 161 406
53 20 157 13 209 -14z"/>
<path d="M758 1199 c-57 -21 -43 -79 19 -79 22 0 36 -6 40 -16 7 -19 -13 -34
-44 -34 -13 0 -23 -4 -23 -10 0 -18 59 -11 80 10 11 11 20 24 20 28 0 20 -28
41 -59 44 -45 4 -51 25 -12 39 17 6 28 15 25 20 -6 11 -11 10 -46 -2z"/>
<path d="M688 1170 c-4 -8 -9 -37 -10 -65 l-3 -50 -28 48 c-15 26 -35 47 -44
47 -13 0 -15 -9 -10 -55 6 -62 -2 -63 -34 -5 -20 36 -43 50 -39 25 5 -30 67
-114 84 -115 16 0 18 5 11 55 -3 30 -4 55 -1 55 3 0 17 -20 32 -45 42 -73 57
-59 52 51 -2 38 -6 62 -10 54z"/>
<path d="M412 1094 c-30 -21 -17 -38 13 -18 27 18 55 13 55 -9 0 -7 -15 -20
-32 -28 -64 -28 -39 -104 26 -79 14 5 26 14 26 20 0 6 5 8 10 5 20 -13 28 6
14 33 -7 15 -14 35 -14 44 0 43 -56 61 -98 32z m83 -74 c9 -15 -14 -40 -36
-40 -19 0 -27 29 -12 43 10 11 41 8 48 -3z"/>
</g>
</svg>
